<svg class="h-8 hover:text-gray-900 dark:hover:text-white" viewBox="0 0 76 33" fill="none" xmlns="http://www.w3.org/2000/svg"><path d="M11.6169 0.936016C11.6169 0.988007 9.32937 7.38281 6.5219 15.1553C3.71442 22.9279 1.1409 30.1025 0.802966 31.0644L0.205078 32.832L3.61044 32.754L6.98981 32.6761L7.45772 31.5063C7.69168 30.8564 9.04342 27.1391 10.4472 23.2398C11.8509 19.3406 13.0207 16.1952 13.0467 16.2211C13.0987 16.2731 12.9167 19.5745 12.6308 23.5778C12.3708 27.581 12.1368 31.2983 12.1368 31.8182V32.806H15.4902C18.4277 32.806 18.8696 32.754 19.0256 32.3381C19.1035 32.1042 21.6511 25.0595 24.6405 16.7411C27.6559 8.39662 30.1775 1.40393 30.2555 1.19597C30.3854 0.884026 29.8655 0.832035 26.9541 0.884026L23.5227 0.962011L22.249 4.47135C21.5471 6.39499 20.2473 10.0083 19.3635 12.4778C18.5057 14.9474 17.7258 16.923 17.6738 16.845C17.5698 16.7411 18.1677 6.49897 18.5316 2.57371L18.6876 0.832035H15.1523C13.2026 0.832035 11.6169 0.884026 11.6169 0.936016Z" fill="currentColor"></path><path d="M31.5031 1.27401C31.4252 1.53396 28.9036 8.52665 25.9142 16.8191C22.9247 25.1115 20.4032 32.1042 20.3252 32.3382C20.1433 32.7801 20.4292 32.8061 24.2505 32.8061H28.3837L33.9207 17.391C36.9621 8.94257 39.5096 1.74192 39.6136 1.40398L39.7436 0.832088H35.7143C32.127 0.832088 31.6591 0.884079 31.5031 1.27401Z" fill="currentColor"></path><path d="M40.9654 1.53396C39.9256 4.23745 29.8135 32.4422 29.8135 32.6501C29.8135 32.7281 31.6331 32.7801 33.8947 32.7541L37.9499 32.6761L40.1855 26.4373C41.4073 23.0059 42.4471 20.4324 42.4991 20.7184C42.5251 21.0043 42.3431 23.8378 42.0832 27.0092L41.6153 32.8061H45.6965H49.7517L49.9337 31.2984C50.0117 30.4925 50.3236 26.5413 50.6356 22.538L51.1815 15.2594L55.4967 8.7606C57.8622 5.17327 60.0198 1.94988 60.3057 1.53396L60.7737 0.832088H57.0564H53.3391L49.3358 6.81097C47.1262 10.1123 45.2806 12.7379 45.2286 12.7119C45.1766 12.6599 46.0864 10.0084 47.2302 6.83696C48.374 3.66556 49.3098 1.01406 49.3098 0.962065C49.3098 0.884079 47.4902 0.832088 45.2806 0.832088H41.2513L40.9654 1.53396Z" fill="currentColor"></path><path d="M60.6698 3.35356C60.1499 4.7573 57.6284 11.75 55.0548 18.8986C52.4813 26.0473 50.2977 32.1042 50.2197 32.3641C50.0378 32.78 50.4277 32.806 57.1344 32.754L64.2311 32.6761L65.2189 29.9466C65.7648 28.4389 66.2847 27.0351 66.3627 26.7752C66.4667 26.4112 66.1808 26.3592 63.6852 26.3852C62.1515 26.3852 60.8777 26.2813 60.8258 26.1513C60.7738 26.0213 61.2417 24.5136 61.8656 22.7979L63.0093 19.6785L65.7388 19.6005L68.4943 19.5225L69.5601 16.5331C70.158 14.8954 70.6259 13.4137 70.6259 13.2837C70.6259 13.1537 69.4561 13.0497 68.0264 13.0497C66.5967 13.0497 65.4269 12.9977 65.4269 12.9458C65.4269 12.8938 65.7128 12.0359 66.0768 11.0741C66.4407 10.0863 66.9086 8.78654 67.1426 8.16266L67.5585 7.07086H70.5219C72.1596 7.07086 73.4854 7.04487 73.4854 6.99288C73.4854 6.94089 73.9533 5.64113 74.5252 4.05543C75.0971 2.49572 75.565 1.14397 75.565 1.014C75.565 0.910017 72.4196 0.832033 68.5723 0.832033H61.5796L60.6698 3.35356Z" fill="currentColor"></path></svg>