<svg class="h-8 hover:text-gray-900 dark:hover:text-white" viewBox="0 0 74 33" fill="none" xmlns="http://www.w3.org/2000/svg"><path d="M16.3881 32.832C25.2243 32.832 32.4008 25.6767 32.4008 16.8356C32.4008 7.99401 25.2243 0.832031 16.3881 0.832031C7.5383 0.832031 0.375488 7.99401 0.375488 16.8356C0.375488 25.6767 7.5383 32.832 16.3881 32.832Z" fill="currentColor"></path><path d="M15.7439 9.81238V23.8517H20.2071V22.5893H17.0303V9.81238H15.7439Z" fill="white"></path><path d="M11.2749 13.643C12.3367 13.643 13.1926 12.7796 13.1926 11.7252C13.1926 10.67 12.3367 9.80327 11.2749 9.80327C10.213 9.80327 9.35707 10.67 9.35707 11.7252C9.35707 12.7804 10.213 13.643 11.2749 13.643Z" fill="white"></path><path d="M17.0299 3.44376C16.8625 3.43547 16.5443 3.42511 16.3923 3.42511C9.00118 3.42511 2.98598 9.44239 2.98598 16.8289C2.98598 20.4167 4.3801 23.7796 6.90525 26.3085C9.44075 28.8316 12.8053 30.2257 16.3923 30.2257C19.9656 30.2257 23.3293 28.8316 25.8602 26.3085C28.3916 23.7796 29.7923 20.4167 29.7923 16.8289V16.2327H20.2196V17.4665H28.5155C28.5155 17.4935 28.5155 17.6244 28.5097 17.6583C28.0879 23.9731 22.8139 28.9745 16.3923 28.9745C13.1417 28.9745 10.0937 27.7105 7.79972 25.4148C5.49829 23.1287 4.23012 20.0832 4.23012 16.8285C4.23012 13.5924 5.49829 10.5312 7.79972 8.23802C10.0937 5.94695 13.1417 4.68292 16.3923 4.68292C16.5323 4.68292 16.8729 4.68292 17.0299 4.69121V3.44376Z" fill="white"></path><path d="M44.4432 6.21874H39.6315V27.0488H54.4104V22.9941H44.4432V6.21874ZM64.9953 19.1109H68.9141V22.753C68.1916 23.0281 66.7826 23.3023 65.4419 23.3023C61.1112 23.3023 59.6687 21.1028 59.6687 16.6354C59.6687 12.3752 61.0425 9.86333 65.3731 9.86333C67.7798 9.86333 69.1544 10.6198 70.2871 12.0637L73.2788 9.31314C71.4567 6.70306 68.2595 5.91257 65.2704 5.91257C58.5322 5.91257 54.9929 9.58989 54.9929 16.6006C54.9929 23.5774 58.1892 27.3579 65.2364 27.3579C68.4667 27.3579 71.629 26.5335 73.3467 25.3307V15.226H64.9953V19.1109Z" fill="currentColor"></path></svg>