<svg class="h-8 hover:text-gray-900 dark:hover:text-white" viewBox="0 0 97 33" fill="none" xmlns="http://www.w3.org/2000/svg"><path d="M23.3087 17.7422C23.2945 15.1203 24.4766 13.1414 26.8694 11.684C25.5306 9.76222 23.5081 8.70489 20.8376 8.49771C18.3094 8.29767 15.5463 9.97655 14.5351 9.97655C13.4668 9.97655 11.0171 8.56915 9.09427 8.56915C5.12049 8.63345 0.897461 11.7483 0.897461 18.0852C0.897461 19.9569 1.23929 21.8906 1.92295 23.8862C2.8345 26.5081 6.12462 32.9379 9.55716 32.8307C11.3518 32.7878 12.6194 31.5519 14.9552 31.5519C17.2199 31.5519 18.3949 32.8307 20.396 32.8307C23.8571 32.7807 26.8338 26.9368 27.7027 24.3077C23.0595 22.1145 23.3087 17.878 23.3087 17.7422ZM19.278 6.01154C21.2221 3.69684 21.0441 1.58931 20.9871 0.832031C19.2708 0.932049 17.284 2.00367 16.1516 3.32534C14.9054 4.73988 14.1719 6.4902 14.3285 8.46199C16.1872 8.60487 17.8822 7.64755 19.278 6.01154Z" fill="currentColor"></path><path d="M38.6162 21.8529L36.7504 27.5318H34.3521L40.4587 9.48436H43.2574L49.3874 27.5318H46.9074L44.9872 21.8529H38.6162ZM44.5091 20.0302L42.7521 14.8354C42.3517 13.6567 42.0874 12.5872 41.8192 11.5412H41.7687C41.5005 12.6107 41.2089 13.7074 40.863 14.808L39.106 20.0263L44.5091 20.0302ZM51.2066 18.8008C51.2066 17.142 51.156 15.7994 51.0977 14.5699H53.2046L53.3134 16.7946H53.3639C54.324 15.2139 55.8439 14.2772 57.9507 14.2772C61.0721 14.2772 63.416 16.9274 63.416 20.8655C63.416 25.5256 60.5901 27.8245 57.5504 27.8245C55.8439 27.8245 54.3513 27.0751 53.5777 25.791H53.5272V32.832H51.2066V18.8008ZM53.5233 22.2549C53.5233 22.6062 53.5738 22.9223 53.6321 23.219C54.0597 24.8504 55.4707 25.9784 57.1539 25.9784C59.6338 25.9784 61.076 23.9449 61.076 20.9708C61.076 18.3715 59.7155 16.1546 57.2355 16.1546C55.6379 16.1546 54.1452 17.3059 53.6866 19.074C53.6049 19.3667 53.5272 19.718 53.5272 20.038L53.5233 22.2549ZM65.8416 18.8008C65.8416 17.142 65.791 15.7994 65.7327 14.5699H67.8395L67.9484 16.7946H67.9989C68.959 15.2139 70.4789 14.2772 72.5857 14.2772C75.7071 14.2772 78.051 16.9274 78.051 20.8655C78.051 25.5256 75.2251 27.8245 72.1853 27.8245C70.4789 27.8245 68.9862 27.0751 68.2127 25.791H68.1622V32.832H65.8416V18.8008ZM68.1622 22.2549C68.1622 22.6062 68.2127 22.9223 68.271 23.219C68.6986 24.8504 70.1096 25.9784 71.7927 25.9784C74.2727 25.9784 75.7148 23.9449 75.7148 20.9708C75.7148 18.3715 74.3544 16.1546 71.8744 16.1546C70.2768 16.1546 68.7841 17.3059 68.3254 19.074C68.2438 19.3667 68.1661 19.718 68.1661 20.038L68.1622 22.2549ZM80.4804 8.52032H82.8283V27.5279H80.4804V8.52032ZM87.5472 21.4782C87.5978 24.6631 89.6268 25.9784 91.9708 25.9784C93.65 25.9784 94.6645 25.6856 95.543 25.311L95.9434 26.997C95.1193 27.3717 93.7044 27.8011 91.652 27.8011C87.6794 27.8011 85.3044 25.1783 85.3044 21.2675C85.3044 17.3567 87.5978 14.2772 91.3566 14.2772C95.5702 14.2772 96.6897 17.9968 96.6897 20.3815C96.6897 20.8655 96.6392 21.2362 96.6081 21.4782H87.5472ZM94.4274 19.7921C94.4546 18.2934 93.8133 15.9633 91.1739 15.9633C88.7989 15.9633 87.761 18.1607 87.5744 19.7921H94.4274Z" fill="currentColor"></path></svg>