<svg class="h-6 hover:text-gray-900 dark:hover:text-white" viewBox="0 0 181 33" fill="none" xmlns="http://www.w3.org/2000/svg"><path d="M137.412 2.62108V6.17719H140.849C142.351 6.17719 143.337 7.13358 143.899 7.75176C144.349 8.26084 154.249 19.5992 154.487 19.8974C154.724 20.1956 154.724 20.199 154.724 20.3881V26.0068C154.723 26.2643 154.698 26.5212 154.648 26.7738C154.578 26.9369 154.473 27.0826 154.341 27.2007C154.21 27.3188 154.054 27.4065 153.885 27.4577C153.56 27.499 153.233 27.5196 152.906 27.5196L149.465 27.5153V31.0714H168.768V27.5153H165.135C164.81 27.5169 164.485 27.496 164.163 27.4528C163.995 27.4021 163.839 27.3146 163.708 27.1965C163.577 27.0784 163.473 26.9327 163.404 26.7695C163.353 26.517 163.327 26.2601 163.325 26.0025V20.3874C163.303 20.2028 163.349 20.0167 163.454 19.864L174.164 7.52235C175.147 6.41689 175.658 6.17647 176.947 6.17647H180.5V2.62036H164.592V6.16936H166.993C167.122 6.16155 167.25 6.19122 167.362 6.25483C167.475 6.31844 167.567 6.41331 167.627 6.5282C167.688 6.64308 167.715 6.77314 167.704 6.90291C167.694 7.03268 167.647 7.15672 167.569 7.26027C167.519 7.33298 160.909 15.1839 160.826 15.2603C160.743 15.3367 160.69 15.3183 160.628 15.2347C160.567 15.151 154.037 7.26029 154.037 7.26029C153.576 6.68938 153.936 6.16937 154.476 6.16937H156.816V2.62038L137.412 2.62108Z" fill="currentColor"></path><path d="M90.0683 2.62109V6.1772H93.1494C95.3742 6.1772 95.5259 7.42864 95.5259 8.51955V25.163C95.5259 26.1594 95.5831 27.5266 94.1647 27.5266H90.3629V31.0792H106.596V27.5266H102.636C101.055 27.5266 100.983 26.796 100.965 25.2433V10.9847L123.26 31.0792H128.93L128.631 8.38459C128.66 6.72641 128.761 6.17365 130.46 6.17365H134.013V2.62109H117.453V6.17365H121.089C122.76 6.17365 123.04 6.8246 123.062 8.38459L123.26 20.261L103.907 2.62109H90.0683Z" fill="currentColor"></path><path d="M16.97 0.832031C13.4816 0.832031 9.518 1.49384 6.17001 3.01385C3.0452 4.42475 0.500023 6.69001 0.500023 10.4464C0.495274 12.4136 1.23591 14.308 2.57002 15.7411C3.47362 16.5848 4.93185 18.0175 8.74065 18.8612C10.4434 19.2248 14.0831 19.8102 17.7083 20.1957C21.3335 20.5811 24.8471 20.9231 26.2871 21.3122C27.4319 21.6067 29.3577 22.0068 29.3577 24.1886C29.3577 26.3704 27.3311 27.0247 26.9783 27.1666C26.6255 27.3084 24.1916 28.4357 19.8212 28.4357C16.9255 28.3545 14.0562 27.8561 11.3 26.9556C9.6692 26.3666 7.95958 25.5919 6.36478 23.6247C5.72099 22.6983 5.36373 21.5999 5.33821 20.4684H1.3782V31.6687H5.77765V30.1523C5.77693 30.0398 5.80595 29.9292 5.86167 29.8317C5.91739 29.7343 5.9978 29.6537 6.09465 29.5981C6.1915 29.5425 6.30128 29.5141 6.41266 29.5156C6.52403 29.5172 6.633 29.5487 6.7283 29.6069C8.80079 30.5178 10.9565 31.2216 13.1647 31.7084C15.4759 32.1957 16.9702 32.5487 19.843 32.5487C22.8743 32.6069 25.8954 32.176 28.7923 31.2724C30.716 30.7396 32.5209 29.8397 34.1094 28.6211C35.0028 27.9279 35.725 27.0348 36.2191 26.0121C36.7132 24.9894 36.9658 23.8649 36.9571 22.7269C36.9723 20.5648 36.1464 18.4831 34.6571 16.93C33.8289 16.1184 32.8693 15.4556 31.82 14.9705C30.692 14.4557 29.5209 14.0431 28.3206 13.7376C26.0382 13.1739 20.9122 12.4685 18.4606 12.2212C15.8902 11.9521 11.4297 11.5773 9.64767 11.021C9.10767 10.8501 8.00588 10.3232 8.00588 9.03231C8.00588 8.11231 8.50994 7.334 9.50354 6.70491C11.0839 5.7049 14.2736 5.08273 17.6 5.08273C20.8198 5.04343 24.0132 5.67344 26.9818 6.93359C27.7792 7.2847 28.5292 7.73697 29.2135 8.27948C30.3291 9.24195 31.1016 10.5472 31.4129 11.9954H34.9665V2.24681H31.0065V3.37749C31.0065 3.74112 30.6465 4.22129 29.9265 3.82493C28.1409 2.88675 23.1224 0.857484 16.97 0.832031Z" fill="currentColor"></path><path d="M64.6271 0.832031C58.3883 0.832031 51.764 3.01358 48.02 6.44994C46.5927 7.7626 45.4533 9.36256 44.6752 11.1469C43.897 12.9312 43.4972 14.8603 43.5017 16.81C43.4794 18.7678 43.871 20.7079 44.6501 22.5007C45.4293 24.2935 46.5781 25.8978 48.02 27.2063C52.052 30.8681 58.1003 32.832 64.6271 32.832C71.1647 32.832 77.3423 30.89 81.2771 27.2063C82.6762 25.867 83.7924 24.2554 84.5583 22.4687C85.3242 20.6819 85.7239 18.757 85.7335 16.81C85.7528 14.865 85.3659 12.9377 84.598 11.1539C83.8302 9.37015 82.6986 7.76995 81.2771 6.45774C77.0543 2.58865 71.5283 0.832031 64.6271 0.832031ZM64.6271 4.99183C68.0399 4.99183 71.3266 6.23219 73.5406 8.43219C75.6826 10.5631 76.8017 13.574 76.8017 16.7958C76.8017 20.1704 75.7834 22.9049 73.5406 25.1595C71.2978 27.414 68.0867 28.6211 64.6271 28.6211C61.1927 28.6211 57.9128 27.3886 55.6988 25.1595C54.6399 24.0497 53.8086 22.7395 53.2526 21.3042C52.6965 19.8689 52.4268 18.3368 52.4588 16.7958C52.4588 13.5885 53.564 10.5667 55.6988 8.43219C57.9128 6.22128 61.2143 4.99183 64.6271 4.99183Z" fill="currentColor"></path></svg>