<svg class="h-8 hover:text-gray-900 dark:hover:text-white" viewBox="0 0 210 33" fill="none" xmlns="http://www.w3.org/2000/svg"><path d="M198.522 14.8868V19.2429H201.583V23.5649C201.593 23.9511 201.572 24.3676 201.505 24.7009C201.384 25.507 200.618 26.8797 198.445 26.8797C196.285 26.8797 195.533 25.507 195.402 24.7009C195.347 24.3676 195.324 23.9511 195.324 23.5649V9.91396C195.324 9.4311 195.356 8.9026 195.459 8.50258C195.607 7.77503 196.252 6.34025 198.429 6.34025C200.713 6.34025 201.283 7.85289 201.414 8.50258C201.5 8.9329 201.505 9.6547 201.505 9.6547V11.3123H209.027V10.3324C209.027 10.3324 209.061 9.30991 208.97 8.35569C208.405 2.75274 203.788 0.980072 198.495 0.980072C193.192 0.980072 188.669 2.76923 188.01 8.35569C187.951 8.86655 187.86 9.78548 187.86 10.3324V22.8898C187.86 23.4368 187.877 23.8602 187.979 24.8596C188.469 30.3084 193.192 32.2399 198.474 32.2399C203.788 32.2399 208.478 30.3084 208.977 24.8596C209.066 23.8602 209.075 23.4368 209.087 22.8898V14.8868H198.522ZM146.655 1.78356H139.101V23.8797C139.113 24.2648 139.101 24.6974 139.035 25.0146C138.877 25.7563 138.249 27.1838 136.165 27.1838C134.108 27.1838 133.462 25.7563 133.317 25.0146C133.241 24.6974 133.232 24.2648 133.241 23.8797V1.78356H125.689V23.194C125.68 23.7459 125.723 24.8735 125.756 25.1688C126.277 30.7479 130.674 32.5593 136.165 32.5593C141.666 32.5593 146.061 30.7479 146.591 25.1688C146.633 24.8735 146.688 23.7459 146.655 23.194V1.78356ZM77.2484 1.78356L73.4803 25.1312L69.7144 1.78356H57.5294L56.8831 31.6519H64.3481L64.5502 4.00188L69.6864 31.6519H77.2603L82.4011 4.00188L82.604 31.6519H90.0878L89.4197 1.78356H77.2484ZM32.1337 1.78356L26.6009 31.6519H34.6692L38.8385 4.00188L42.9078 31.6519H50.92L45.4103 1.78356H32.1337ZM173.055 25.8311L166.021 1.78356H154.937V31.3405H162.27L161.844 6.52358L169.398 31.3405H180.028V1.78356H172.648L173.055 25.8311ZM105.233 9.5569C105.1 8.96703 105.139 8.34035 105.207 8.01282C105.421 7.05668 106.063 6.01387 107.914 6.01387C109.639 6.01387 110.651 7.08928 110.651 8.70317V10.5295H118.014V8.44774C118.014 2.01214 112.245 1.00117 108.067 1.00117C102.806 1.00117 98.5093 2.73548 97.7246 7.5779C97.5171 8.8957 97.4657 10.0655 97.7959 11.5581C99.0754 17.596 109.587 19.3476 111.112 23.166C111.382 23.8893 111.305 24.8117 111.167 25.3552C110.939 26.3489 110.27 27.3484 108.288 27.3484C106.43 27.3484 105.311 26.2798 105.311 24.6694L105.309 21.8029H97.3829V24.0815C97.3829 30.6839 102.554 32.6759 108.124 32.6759C113.459 32.6759 117.865 30.853 118.572 25.9117C118.909 23.3585 118.654 21.6955 118.519 21.0692C117.284 14.8764 106.081 13.0136 105.233 9.5569ZM8.09575 9.48364C7.95116 8.88151 7.98491 8.246 8.06545 7.91463C8.26948 6.9631 8.91572 5.90188 10.7992 5.90188C12.5462 5.90188 13.5748 6.98765 13.5748 8.61457V10.4632H21.0248V8.3649C21.0248 1.86756 15.1668 0.832031 10.9438 0.832031C5.63849 0.832031 1.30348 2.59319 0.510349 7.47051C0.293273 8.8094 0.256059 9.98722 0.569784 11.4964C1.86304 17.6029 12.4783 19.3687 14.0228 23.2327C14.312 23.9511 14.2245 24.8735 14.0811 25.438C13.836 26.4421 13.1621 27.4557 11.164 27.4557C9.29811 27.4557 8.18204 26.3688 8.18204 24.7361L8.17169 21.862H0.156738V24.1459C0.156738 30.8239 5.40147 32.832 11.0148 32.832C16.4114 32.832 20.843 30.993 21.566 25.9945C21.9254 23.418 21.6557 21.7412 21.5346 21.1053C20.2739 14.8365 8.94603 12.9799 8.09575 9.48364Z" fill="currentColor"></path></svg>